<svg width="44" height="19" viewBox="0 0 44 19" fill="none" xmlns="http://www.w3.org/2000/svg">
<path d="M33.0494 0.881226C31.0619 0.881098 29.1195 1.38658 27.467 2.33378C25.8146 3.28097 24.5267 4.62731 23.7661 6.20255C23.0055 7.77776 22.8064 9.51121 23.194 11.1835C23.5816 12.8558 24.5385 14.392 25.9436 15.5977C27.3487 16.8034 29.1391 17.6245 31.0885 17.9572C33.0369 18.2899 35.0574 18.1192 36.8938 17.4668C38.7294 16.8143 40.2986 15.7093 41.4025 14.2916C42.5072 12.8739 43.0963 11.2071 43.0963 9.50207C43.0932 7.21662 42.034 5.02552 40.1506 3.4094C38.2672 1.79327 35.7132 0.884076 33.0494 0.881226ZM33.0494 14.8043C31.8273 14.8044 30.6325 14.4936 29.6159 13.911C28.5996 13.3285 27.8074 12.5004 27.3395 11.5316C26.8716 10.5628 26.7492 9.49662 26.9875 8.46804C27.2259 7.43952 27.8144 6.49469 28.6786 5.75306C29.5429 5.01146 30.6443 4.5064 31.843 4.30176C33.0416 4.09712 34.2842 4.20208 35.4131 4.60338C36.5428 5.00467 37.508 5.68427 38.1872 6.55626C38.8657 7.42823 39.2284 8.45338 39.2284 9.50207C39.2261 10.9075 38.5743 12.2548 37.4156 13.2487C36.2576 14.2426 34.6876 14.802 33.0494 14.8043ZM10.0476 0.881226C8.06036 0.881226 6.11774 1.38683 4.46547 2.3341C2.81311 3.28138 1.52529 4.62777 0.764806 6.20302C0.00432062 7.7783 -0.194594 9.51161 0.193052 11.1839C0.580777 12.8562 1.53767 14.3923 2.94285 15.5979C4.34803 16.8036 6.13835 17.6246 8.08739 17.9573C10.0364 18.2899 12.0567 18.1192 13.8927 17.4667C15.7287 16.8142 17.2978 15.7093 18.4019 14.2916C19.506 12.8738 20.0953 11.2071 20.0953 9.50207C20.0921 7.21649 19.0325 5.02531 17.1489 3.40917C15.2653 1.79302 12.7115 0.883894 10.0476 0.881226ZM10.0476 14.8043C8.90883 14.8048 7.79211 14.5353 6.82057 14.0256C5.8491 13.5159 5.06057 12.7858 4.54217 11.9158C4.02384 11.0459 3.79563 10.0699 3.8829 9.0958C3.97018 8.12159 4.36942 7.18704 5.03667 6.39527C5.70393 5.60354 6.61319 4.98536 7.66402 4.609C8.71493 4.23263 9.86659 4.11273 10.9918 4.2625C12.1172 4.41229 13.1723 4.82593 14.0409 5.45778C14.9095 6.08963 15.5577 6.91514 15.914 7.8431H10.0476V11.161H15.914C15.5059 12.2199 14.7197 13.1418 13.6667 13.7957C12.6137 14.4497 11.3475 14.8025 10.0476 14.8043Z" fill="#FF70D9"/>
</svg>
